<svg width="133" height="80" viewBox="0 0 1242 620" fill="none" xmlns="http://www.w3.org/2000/svg"><path d="M336.455 135.734C345.6 135.734 353.395 139.06 359.942 145.659C366.489 152.259 369.763 160.261 369.763 169.719C369.763 179.177 366.541 186.92 360.046 193.467C353.603 200.015 345.86 203.289 336.819 203.289C327.777 203.289 319.671 199.963 313.124 193.26C306.577 186.608 303.355 178.501 303.355 168.94C303.355 159.378 306.577 151.947 313.072 145.503C319.515 139.008 327.362 135.786 336.455 135.786V135.734ZM310.37 221.217H362.436V428.767H310.37V221.217Z" fill="orange"></path><path d="M521.181 250.214L488.964 282.432C475.87 269.441 463.97 262.997 453.318 262.997C442.666 262.997 442.874 264.244 439.6 266.739C436.274 269.233 434.664 272.299 434.664 275.989C434.664 279.678 435.703 281.341 437.833 283.731C439.912 286.07 445.108 289.292 453.37 293.345L472.44 302.907C492.55 312.832 506.32 322.913 513.854 333.254C521.337 343.544 525.13 355.652 525.13 369.526C525.13 383.401 518.375 403.356 504.813 415.672C491.25 427.988 473.116 434.171 450.356 434.171C427.597 434.171 395.952 422.323 377.869 398.679L409.93 363.758C416.009 370.877 423.18 376.646 431.39 381.011C439.6 385.376 446.875 387.61 453.214 387.61C459.554 387.61 465.633 385.947 469.79 382.674C473.999 379.348 476.078 375.554 476.078 371.241C476.078 363.239 468.491 355.392 453.37 347.805L435.807 339.023C402.239 322.134 385.455 300.932 385.455 275.521C385.455 250.11 391.795 245.121 404.422 233.481C417.048 221.841 433.261 216.02 452.954 216.02C472.648 216.02 479.143 218.982 490.991 224.906C502.89 230.831 512.971 239.301 521.233 250.37L521.181 250.214Z" fill="orange"></path><path d="M703.568 221.217H755.634V428.767H703.568V406.838C693.383 416.503 683.199 423.467 673.014 427.728C662.778 431.989 651.71 434.12 639.758 434.12C612.946 434.12 589.771 423.726 570.233 402.94C550.695 382.154 540.874 356.275 540.874 325.408C540.874 294.54 550.331 267.102 569.246 246.628C588.16 226.154 611.179 215.917 638.199 215.917C665.22 215.917 662.31 218.255 673.274 222.984C684.186 227.713 694.267 234.728 703.568 244.134V221.269V221.217ZM648.8 263.933C632.691 263.933 619.337 269.649 608.685 281.029C598.033 292.41 592.733 307.012 592.733 324.784C592.733 342.556 598.137 357.47 608.997 369.059C619.857 380.647 633.159 386.415 649.008 386.415C664.856 386.415 678.938 380.751 689.694 369.319C700.45 357.938 705.854 343.024 705.854 324.576C705.854 306.129 700.45 291.89 689.694 280.717C678.938 269.545 665.324 263.933 648.8 263.933Z" fill="orange"></path><path d="M945.816 221.217H997.882V428.767H945.816V406.838C935.631 416.503 925.446 423.467 915.262 427.728C905.025 431.989 893.957 434.12 882.006 434.12C855.194 434.12 832.018 423.726 812.481 402.94C792.943 382.154 783.122 356.275 783.122 325.408C783.122 294.54 792.579 267.102 811.493 246.628C830.408 226.154 853.427 215.917 880.447 215.917C907.468 215.917 904.558 218.255 915.522 222.984C926.434 227.713 936.514 234.728 945.816 244.134V221.269V221.217ZM891.047 263.933C874.939 263.933 861.585 269.649 850.933 281.029C840.28 292.41 834.98 307.012 834.98 324.784C834.98 342.556 840.384 357.47 851.244 369.059C862.105 380.647 875.407 386.415 891.255 386.415C907.104 386.415 921.186 380.751 931.942 369.319C942.698 357.938 948.102 343.024 948.102 324.576C948.102 306.129 942.698 291.89 931.942 280.717C921.186 269.545 907.571 263.933 891.047 263.933Z" fill="orange"></path><path d="M1034.88 221.217H1086.94V242.471C1098.74 232.493 1109.44 225.582 1119.06 221.685C1128.62 217.787 1138.44 215.865 1148.47 215.865C1169.05 215.865 1186.5 223.036 1200.85 237.43C1212.9 249.642 1218.93 267.674 1218.93 291.63V428.767H1167.43V337.879C1167.43 313.092 1166.34 296.671 1164.11 288.512C1161.87 280.354 1158.03 274.17 1152.52 269.909C1147.01 265.647 1140.21 263.517 1132.05 263.517C1123.89 263.517 1112.46 267.05 1104.92 274.118C1097.39 281.185 1092.14 290.903 1089.23 303.374C1087.72 309.87 1086.94 323.901 1086.94 345.466V428.715H1034.88V221.165V221.217Z" fill="orange"></path><path d="M295.509 141.762L114.421 323.589H113.433L113.278 323.849H75.1373V428.767H23.0712V141.086H75.1373V271.571L204.367 141.762H295.509Z" fill="orange"></path><path d="M114.421 323.589L114.213 323.849H113.278L113.433 323.589H114.421Z" fill="orange"></path><path d="M294.522 428.923H248.535C219.488 428.923 191.637 415.464 171.111 391.56L113.174 324.005V323.901C113.226 323.901 113.433 323.641 113.433 323.641H158.796C187.843 323.641 215.695 337.1 236.22 361.004L294.522 428.923Z" fill="orange"></path></svg>